#Unknown ASF file
:ROOT_YZX
:FOOT_3DOF
:FULLY-SPECIFIED
:DEGREES
864
root -3.5715 17.4694 24.2233 -0.90372 178.67 -7.82991
lfemur -30.4716 4.65133 -13.2077
ltibia 33.1276
lfoot -10.2851 0 1.08645
ltoes -14.7497
rfemur 18.0353 3.08605 33.1761
rtibia 12.1681
rfoot -12.9252 0 -1.16825
rtoes -19.0909
lowerback 9.66348 2.37049 4.58149
upperback 0.338633 4.12963 3.71708
thorax -5.03137 2.08754 0.730437
lowerneck -11.3144 -9.1074 -20.388
upperneck 17.0004 -12.1646 14.737
head 9.3955 -5.96546 6.89472
lclavicle 6.02069e-014 2.22639e-014
lhumerus -42.3612 17.642 79.7131
lradius 25.8031
lwrist -5.10696
lhand -10.1016 31.3826
lfingers 7.12502
lthumb 15.8858 60.751
rclavicle 6.02069e-014 2.22639e-014
rhumerus -29.5605 -5.8324 -80.6604
rradius 37.0607
rwrist -2.5506
rhand -23.6757 13.7931
rfingers 7.12502
rthumb 2.79053 -16.1684
865
root -3.68055 17.5752 23.5687 -1.28633 178.34 -7.76878
lfemur -28.4588 5.16506 -13.5909
ltibia 34.1518
lfoot -9.91399 0 2.17069
ltoes -15.7833
rfemur 17.4199 2.55008 32.2708
rtibia 17.4774
rfoot -9.68607 0 0.172307
rtoes -22.825
lowerback 9.38495 2.39933 4.73693
upperback 0.392802 4.12325 3.44737
thorax -4.78586 2.07372 0.380757
lowerneck -10.6684 -9.1971 -19.8962
upperneck 16.2493 -12.4613 14.911
head 9.05577 -6.07879 6.83434
lclavicle -3.64894e-014 -1.31198e-014
lhumerus -42.0979 16.8717 79.4546
lradius 26.0719
lwrist -4.6087
lhand -10.0938 31.3702
lfingers 7.12502
lthumb 15.8933 60.738
rclavicle -3.64894e-014 -1.31198e-014
rhumerus -30.8665 -7.53369 -80.5762
rradius 34.6412
rwrist -1.71844
rhand -22.845 5.29651
rfingers 7.12502
rthumb 3.59274 -24.653
866
root -3.8231 17.6815 22.8972 -1.42961 177.365 -7.52712
lfemur -25.6705 6.17693 -14.1844
ltibia 33.8391
lfoot -8.96924 0 1.44735
ltoes -12.0446
rfemur 14.0074 1.55784 30.2066
rtibia 26.4113
rfoot -3.20606 0 3.51159
rtoes -20.2092
lowerback 8.88038 2.47324 4.86179
upperback 0.35786 4.16462 3.24503
thorax -4.51318 2.08525 0.122628
lowerneck -11.2063 -9.16486 -19.963
upperneck 16.9344 -12.4809 15.1501
head 9.41334 -6.07435 6.92727
lclavicle 5.08019e-014 5.68524e-014
lhumerus -42.0626 15.2617 80.0224
lradius 26.9717
lwrist -2.83677
lhand -10.1946 30.8429
lfingers 7.12502
lthumb 15.7962 60.2184
rclavicle 5.08019e-014 5.68524e-014
rhumerus -32.2558 -8.0397 -80.4499
rradius 32.0105
rwrist -1.2746
rhand -22.6291 13.8585
rfingers 7.12502
rthumb 3.8013 -16.0874
867
root -3.97185 17.7487 22.2187 -1.93927 176.635 -5.90586
lfemur -22.4467 6.99822 -16.3242
ltibia 33.5986
lfoot -9.41722 0 0.728618
ltoes -9.90772
rfemur 9.42757 0.316775 26.3088
rtibia 36.6339
rfoot 7.74158 0 5.49024
rtoes -11.3399
lowerback 8.61851 2.47562 3.52547
upperback 0.531329 3.93866 2.82543
thorax -4.24556 1.9824 0.47505
lowerneck -11.6089 -9.00602 -20.4225
upperneck 16.9764 -12.2694 15.9147
head 9.54831 -5.93444 7.31548
lclavicle 2.72583e-014 1.17283e-014
lhumerus -42.1866 13.0018 81.2106
lradius 29.0439
lwrist -0.331447
lhand -10.1387 31.1231
lfingers 7.12502
lthumb 15.8501 60.4943
rclavicle 2.72583e-014 1.17283e-014
rhumerus -33.5197 -6.86347 -80.6339
rradius 29.7855
rwrist -0.50191
rhand -21.743 15.1217
rfingers 7.12502
rthumb 4.65697 -14.8071
868
root -4.02097 17.7405 21.7566 -1.84921 -179.37 -3.62277
lfemur -20.8447 6.49019 -19.4068
ltibia 33.3335
lfoot -8.92318 0 -3.07336
ltoes -11.7479
rfemur 2.9132 -4.01947 22.7251
rtibia 47.7208
rfoot 17.0949 0 4.05725
rtoes -6.09875
lowerback 10.2729 1.2575 0.629224
upperback -0.0450393 1.78913 2.36736
thorax -5.87322 0.852382 1.85809
lowerneck -11.4839 -8.98284 -19.8095
upperneck 16.979 -12.2206 15.2031
head 9.42129 -5.9331 6.95773
lclavicle -1.26104e-014 8.74653e-015
lhumerus -41.7007 11.2588 81.7468
lradius 29.397
lwrist 0.286397
lhand -11.0863 28.3192
lfingers 7.12502
lthumb 14.9374 57.7606
rclavicle -1.26104e-014 8.74653e-015
rhumerus -35.0165 -6.12526 -80.5844
rradius 28.4657
rwrist 3.08138
rhand -21.4441 15.2169
rfingers 7.12502
rthumb 4.94559 -14.7054
869
root -4.13226 17.7309 21.1646 -2.91168 -179.149 -1.10985
lfemur -17.2858 7.21442 -22.3949
ltibia 33.0883
lfoot -10.6047 0 -3.52749
ltoes -5.14398
rfemur -1.99951 -4.64881 18.5971
rtibia 57.81
rfoot 25.4523 0 0.571611
rtoes -1.01514
lowerback 10.664 1.1425 -1.94938
upperback 0.72068 1.28259 1.83824
thorax -5.31816 0.654007 2.83509
lowerneck -11.9566 -9.12912 -19.567
upperneck 16.4298 -12.1791 14.9581
head 9.28167 -5.86467 6.8072
lclavicle -8.69683e-015 -1.19271e-014
lhumerus -39.6829 9.22135 82.8186
lradius 30.0968
lwrist 0.311954
lhand -9.75688 31.1376
lfingers 7.12502
lthumb 16.2178 60.4792
rclavicle -8.69683e-015 -1.19271e-014
rhumerus -35.4605 -6.47045 -79.9715
rradius 28.682
rwrist 9.69946
rhand -20.186 12.643
rfingers 7.12502
rthumb 6.16023 -17.2474
870
root -4.23052 17.6742 20.6678 -3.8194 -178.269 0.566719
lfemur -14.6747 6.95065 -24.5266
ltibia 33.3976
lfoot -12.1269 0 -3.59108
ltoes -7.94249
rfemur -6.91292 -5.45257 15.8073
rtibia 66.3804
rfoot 27.8143 0 -5.88737
rtoes -1.12237
lowerback 11.934 0.753631 -3.70731
upperback 1.25259 0.460003 1.6189
thorax -5.42783 0.26286 3.73019
lowerneck -12.4568 -9.24178 -20.1255
upperneck 15.9523 -12.0772 15.3144
head 9.25778 -5.77411 7.02323
lclavicle 6.31141e-015 9.54166e-015
lhumerus -36.8792 7.9114 83.4789
lradius 29.1901
lwrist -0.782524
lhand -9.76878 31.1514
lfingers 7.12502
lthumb 16.2063 60.494
rclavicle 6.31141e-015 9.54166e-015
rhumerus -35.2616 -6.00485 -80.1435
rradius 27.1849
rwrist 4.13858
rhand -21.443 17.7337
rfingers 7.12502
rthumb 4.94661 -12.1886
871
root -4.30664 17.6355 20.1786 -4.58055 -177.232 1.46729
lfemur -11.9078 6.00435 -25.7121
ltibia 33.3834
lfoot -13.9716 0 -3.07839
ltoes -8.8635
rfemur -11.9387 -6.23593 14.4889
rtibia 72.4544
rfoot 22.0262 0 -5.35251
rtoes 2.58091
lowerback 12.8089 0.313828 -4.80877
upperback 1.71418 -0.355833 1.59818
thorax -5.34544 -0.147838 4.47954
lowerneck -12.1098 -9.24227 -19.83
upperneck 14.9816 -11.9712 15.0349
head 8.80735 -5.71402 6.87948
lclavicle -2.48481e-015 1.27222e-014
lhumerus -33.5597 8.01503 83.3842
lradius 27
lwrist -3.3865
lhand -10.8242 29.8238
lfingers 7.12502
lthumb 15.1898 59.2462
rclavicle -2.48481e-015 1.27222e-014
rhumerus -35.53 -7.52255 -79.3487
rradius 27.7387
rwrist 4.16535
rhand -20.6494 13.999
rfingers 7.12502
rthumb 5.71287 -15.904
872
root -4.37127 17.6194 19.7129 -4.78657 -176.821 1.49669
lfemur -9.81995 5.57748 -25.8283
ltibia 33.2028
lfoot -15.3617 0 -2.68105
ltoes -9.94071
rfemur -17.3901 -6.01596 14.7914
rtibia 76.1545
rfoot 12.2985 0 -2.44306
rtoes -3.10087
lowerback 12.9337 0.0287655 -4.93609
upperback 2.05905 -0.783757 1.68118
thorax -4.99915 -0.388573 4.71136
lowerneck -10.1815 -8.91883 -20.5193
upperneck 13.2465 -11.9033 16.6233
head 8.02813 -5.68732 7.60886
lclavicle 1.05356e-014 1.98785e-015
lhumerus -30.2424 9.30714 82.6417
lradius 25.5366
lwrist -8.67812
lhand -8.65635 32.2209
lfingers 7.12502
lthumb 17.2772 61.4729
rclavicle 1.05356e-014 1.98785e-015
rhumerus -35.4109 -10.9511 -77.7627
rradius 25.5756
rwrist 5.14104
rhand -21.5992 19.2653
rfingers 7.12502
rthumb 4.79583 -10.6604
